<svg xmlns="http://www.w3.org/2000/svg" width="137.484" height="19.995" viewBox="0 0 137.484 19.995">
  <g id="Logo" transform="translate(-17.877 -11.312)">
    <path id="Pfad_151" data-name="Pfad 151" d="M4.573-15.237a1.432,1.432,0,0,1,1.051.436A1.432,1.432,0,0,1,6.06-13.75,1.432,1.432,0,0,1,5.624-12.7a1.432,1.432,0,0,1-1.051.436A1.432,1.432,0,0,1,3.522-12.7a1.432,1.432,0,0,1-.436-1.051A1.432,1.432,0,0,1,3.522-14.8,1.432,1.432,0,0,1,4.573-15.237ZM-.123,4.307V2.02a5.423,5.423,0,0,0,2.774-.487A1.955,1.955,0,0,0,3.374-.215V-8.87H1.395v-2.112H5.937V-.256A4.029,4.029,0,0,1,4.455,3.2,7.688,7.688,0,0,1-.123,4.307ZM16.16.01V-.913a4.634,4.634,0,0,1-1.5.79A5.426,5.426,0,0,1,12.91.205q-3.825,0-3.825-4.061v-7.126h2.563V-4.05q0,2.112,1.9,2.112a3.082,3.082,0,0,0,1.62-.451,2.292,2.292,0,0,0,.995-1.046v-7.547h2.563V.01Zm5.773-15.083,2.563-.615V-3.343q0,2.03,1.21,2.42A2.106,2.106,0,0,1,23.676.205q-1.743,0-1.743-2.42Zm7.762-.164a1.432,1.432,0,0,1,1.051.436,1.432,1.432,0,0,1,.436,1.051,1.432,1.432,0,0,1-.436,1.051,1.432,1.432,0,0,1-1.051.436,1.432,1.432,0,0,1-1.051-.436,1.432,1.432,0,0,1-.436-1.051,1.432,1.432,0,0,1,.436-1.051A1.432,1.432,0,0,1,29.7-15.237ZM28.373,0V-8.88h-1.4v-2.1h4V0ZM40.062-1.1a2.481,2.481,0,0,1-1.215.938,4.627,4.627,0,0,1-1.81.364,4.1,4.1,0,0,1-2.789-.887A3.164,3.164,0,0,1,33.233-3.2a3.525,3.525,0,0,1,1.43-2.984A6.654,6.654,0,0,1,38.729-7.26a4.489,4.489,0,0,1,1.066.154q0-1.938-2.451-1.938a5.431,5.431,0,0,0-2.42.482l-.554-1.989a7.2,7.2,0,0,1,3.148-.636A5.1,5.1,0,0,1,41.2-10.044Q42.369-8.9,42.369-5.711v2.348q0,2.194.882,2.758a1.38,1.38,0,0,1-.708.682,2.852,2.852,0,0,1-.892.128,1.423,1.423,0,0,1-.995-.41A2.093,2.093,0,0,1,40.062-1.1Zm-.246-4.071a5.447,5.447,0,0,0-.984-.133Q35.8-5.3,35.8-3.312q0,1.477,1.712,1.477a2.039,2.039,0,0,0,2.307-2.307ZM52.2,0V-6.347A3.181,3.181,0,0,0,51.664-8.4a2.167,2.167,0,0,0-1.759-.646,2.724,2.724,0,0,0-1.2.318,2.777,2.777,0,0,0-1,.79V0H45.138V-10.982h1.846l.472,1.025a3.825,3.825,0,0,1,3.086-1.23,4.1,4.1,0,0,1,3.092,1.174,4.523,4.523,0,0,1,1.133,3.276V0ZM65.676-.6,65.1.205H63.656V-15.073l2.563-.615v5.127a4.213,4.213,0,0,1,2.235-.625,5.168,5.168,0,0,1,3.886,1.523,5.372,5.372,0,0,1,1.477,3.9A6.168,6.168,0,0,1,72.331-1.4,5.226,5.226,0,0,1,68.3.205,4.3,4.3,0,0,1,65.676-.6Zm.543-7.762v5.732a1.9,1.9,0,0,0,1.528.667,3.355,3.355,0,0,0,2.63-.882,4.219,4.219,0,0,0,.774-2.82q0-3.343-3.2-3.343A2.239,2.239,0,0,0,66.22-8.367Zm16.2-.226a2.69,2.69,0,0,0-1.507-.451,2.045,2.045,0,0,0-1.584.81,2.942,2.942,0,0,0-.692,1.979V0H76.074V-10.982h2.563v1a3.642,3.642,0,0,1,2.861-1.21,4.1,4.1,0,0,1,2.01.4Zm9.7,8.6V-.913a4.634,4.634,0,0,1-1.5.79,5.426,5.426,0,0,1-1.753.328q-3.825,0-3.825-4.061v-7.126h2.563V-4.05q0,2.112,1.9,2.112a3.082,3.082,0,0,0,1.62-.451,2.292,2.292,0,0,0,.995-1.046v-7.547h2.563V.01Zm12.4-.01V-6.347A3.181,3.181,0,0,0,103.98-8.4a2.167,2.167,0,0,0-1.759-.646,2.724,2.724,0,0,0-1.2.318,2.777,2.777,0,0,0-1,.79V0H97.453V-10.982H99.3l.472,1.025a3.825,3.825,0,0,1,3.086-1.23,4.1,4.1,0,0,1,3.092,1.174,4.523,4.523,0,0,1,1.133,3.276V0Zm7.342-15.237a1.432,1.432,0,0,1,1.051.436,1.432,1.432,0,0,1,.436,1.051,1.432,1.432,0,0,1-.436,1.051,1.432,1.432,0,0,1-1.051.436,1.432,1.432,0,0,1-1.051-.436,1.432,1.432,0,0,1-.436-1.051,1.432,1.432,0,0,1,.436-1.051A1.432,1.432,0,0,1,111.86-15.237ZM110.537,0V-8.88h-1.4v-2.1h4V0ZM123.18,0V-6.347a3.181,3.181,0,0,0-.538-2.051,2.167,2.167,0,0,0-1.759-.646,2.724,2.724,0,0,0-1.2.318,2.777,2.777,0,0,0-1,.79V0h-2.563V-10.982h1.846l.472,1.025a3.825,3.825,0,0,1,3.086-1.23,4.1,4.1,0,0,1,3.092,1.174,4.523,4.523,0,0,1,1.133,3.276V0Zm4.512,2.82,1.62-2a4.329,4.329,0,0,0,2.994,1.23,4.4,4.4,0,0,0,1.825-.328q.718-.328.718-.9,0-.974-1.589-.974a11.712,11.712,0,0,0-1.282.1,11.712,11.712,0,0,1-1.282.1q-2.646,0-2.646-1.9a1.649,1.649,0,0,1,.441-1.066,2.708,2.708,0,0,1,1.025-.769,3.89,3.89,0,0,1-1.876-3.456,3.742,3.742,0,0,1,1.292-2.917,4.6,4.6,0,0,1,3.179-1.154,5.024,5.024,0,0,1,2.471.554l1-1.169,1.774,1.61-1.22.892a4.039,4.039,0,0,1,.636,2.276,4.013,4.013,0,0,1-1.143,3,3.951,3.951,0,0,1-2.886,1.123,7.029,7.029,0,0,1-.738-.051l-.42-.062a2.784,2.784,0,0,0-.549.22q-.477.22-.477.456,0,.41.708.41a6.131,6.131,0,0,0,1.066-.154,6.521,6.521,0,0,1,1.282-.154q3.743,0,3.743,3a2.943,2.943,0,0,1-1.5,2.61,6.606,6.606,0,0,1-3.609.948A7.563,7.563,0,0,1,127.692,2.82Zm2.563-9.946a2.229,2.229,0,0,0,.538,1.564,1.868,1.868,0,0,0,1.451.59,1.749,1.749,0,0,0,1.4-.574,2.348,2.348,0,0,0,.492-1.579,2,2,0,0,0-.528-1.4,1.774,1.774,0,0,0-1.369-.574,1.942,1.942,0,0,0-1.436.554A1.929,1.929,0,0,0,130.255-7.126Z" transform="translate(18 27)" fill="#fff"/>
    <rect id="Rechteck_22" data-name="Rechteck 22" width="9" height="2.8" rx="1.4" transform="translate(103.38 11.6)" fill="#fff"/>
  </g>
</svg>
